<svg width="347" height="347" viewBox="0 0 347 347" fill="none" xmlns="http://www.w3.org/2000/svg">
<rect width="346.667" height="346.667" fill="white"/>
<path d="M107.307 273V72.2727H177.483C191.466 72.2727 202.999 74.6903 212.081 79.5256C221.163 84.2954 227.926 90.7315 232.369 98.8338C236.813 106.871 239.034 115.79 239.034 125.591C239.034 134.216 237.499 141.338 234.428 146.957C231.422 152.577 227.436 157.02 222.47 160.287C217.57 163.554 212.244 165.972 206.494 167.54V169.5C212.636 169.892 218.811 172.048 225.018 175.969C231.226 179.889 236.42 185.509 240.602 192.827C244.784 200.145 246.875 209.097 246.875 219.682C246.875 229.744 244.588 238.794 240.014 246.831C235.44 254.868 228.22 261.239 218.354 265.943C208.487 270.648 195.648 273 179.835 273H107.307ZM131.614 251.438H179.835C195.713 251.438 206.984 248.366 213.649 242.224C220.379 236.017 223.744 228.503 223.744 219.682C223.744 212.886 222.013 206.614 218.55 200.864C215.087 195.048 210.153 190.409 203.75 186.946C197.347 183.418 189.767 181.653 181.011 181.653H131.614V251.438ZM131.614 160.483H176.699C184.017 160.483 190.616 159.045 196.497 156.17C202.443 153.295 207.148 149.244 210.611 144.017C214.139 138.79 215.903 132.648 215.903 125.591C215.903 116.77 212.832 109.288 206.69 103.146C200.548 96.9389 190.813 93.8352 177.483 93.8352H131.614V160.483Z" fill="black"/>
</svg>
