<?xml version="1.0" standalone="no"?>
<!DOCTYPE svg PUBLIC "-//W3C//DTD SVG 20010904//EN"
 "http://www.w3.org/TR/2001/REC-SVG-20010904/DTD/svg10.dtd">
<svg version="1.0" xmlns="http://www.w3.org/2000/svg"
 width="260.000000pt" height="260.000000pt" viewBox="0 0 260.000000 260.000000"
 preserveAspectRatio="xMidYMid meet">
<metadata>
Created by potrace 1.14, written by Peter Selinger 2001-2017
</metadata>
<g transform="translate(0.000000,260.000000) scale(0.100000,-0.100000)"
fill="#000000" stroke="none">
<path d="M0 1300 l0 -1300 440 0 440 0 0 39 c0 74 -7 71 183 71 l170 0 95 -55
94 -56 223 1 c243 1 298 10 388 63 135 79 225 274 197 425 -39 211 -182 317
-695 515 -279 108 -386 154 -488 213 -209 120 -330 255 -372 415 -19 70 -19
237 0 316 40 168 153 336 305 450 130 98 385 194 510 192 l35 0 -42 -14 c-151
-47 -259 -188 -270 -353 -9 -135 39 -246 142 -325 77 -58 306 -166 565 -266
297 -113 384 -151 468 -200 61 -36 90 -56 175 -121 l27 -22 0 581 0 581 -79 0
-80 0 -78 56 c-43 31 -88 61 -100 67 -13 6 -23 14 -23 19 0 4 -502 8 -1115 8
l-1115 0 0 -1300z"/>
<path d="M2570 301 c-19 -37 -175 -152 -265 -196 -97 -47 -169 -70 -279 -90
-65 -12 -43 -13 247 -14 l317 -1 0 160 c0 88 -2 160 -5 160 -2 0 -9 -9 -15
-19z"/>
</g>
</svg>
